<svg width="34" height="34" viewBox="0 0 34 34" fill="none" xmlns="http://www.w3.org/2000/svg">
<path d="M17 0.333374C7.81665 0.333374 0.333313 7.81671 0.333313 17C0.333313 26.1834 7.81665 33.6667 17 33.6667C26.1833 33.6667 33.6666 26.1834 33.6666 17C33.6666 7.81671 26.1833 0.333374 17 0.333374ZM23.6666 18.25H18.25V23.6667C18.25 24.35 17.6833 24.9167 17 24.9167C16.3166 24.9167 15.75 24.35 15.75 23.6667V18.25H10.3333C9.64998 18.25 9.08331 17.6834 9.08331 17C9.08331 16.3167 9.64998 15.75 10.3333 15.75H15.75V10.3334C15.75 9.65004 16.3166 9.08337 17 9.08337C17.6833 9.08337 18.25 9.65004 18.25 10.3334V15.75H23.6666C24.35 15.75 24.9166 16.3167 24.9166 17C24.9166 17.6834 24.35 18.25 23.6666 18.25Z" fill="#597EF7"/>
</svg>
