<svg width="83" height="44" viewBox="0 0 83 44" fill="none" xmlns="http://www.w3.org/2000/svg">
<path d="M17.4538 25.1967C17.5806 25.1967 17.6651 25.1967 17.7919 25.2388H24.2585C24.3853 25.2388 24.4698 25.2388 24.5966 25.1967C24.808 25.1547 25.0616 25.1126 25.2729 25.0285C26.3718 24.5657 26.9635 23.3038 26.7522 22.2101C26.5408 21.2847 25.8223 20.5275 24.9348 20.2751C24.808 20.2331 24.7234 20.2331 24.5966 20.191C24.4698 20.191 24.3853 20.191 24.2585 20.1489H17.7919C17.4961 20.1489 17.4115 20.1489 17.1157 20.2331C16.9044 20.2751 16.693 20.4013 16.4817 20.5275C15.5941 21.0744 15.087 22.168 15.2983 23.1776C15.5519 24.2292 16.4395 25.0705 17.4538 25.1967Z" fill="#FF9305"/>
<path d="M2.70327 5.0478C2.83007 5.0478 2.9146 5.0478 3.0414 5.08987H9.50798C9.63477 5.08987 9.7193 5.08987 9.8461 5.0478C10.0574 5.00574 10.311 4.96367 10.5223 4.87954C11.6212 4.41683 12.2129 3.15488 12.0016 2.06119C11.7903 1.13576 11.0718 0.378583 10.1842 0.126193C10.0574 0.0841281 9.97289 0.0841294 9.8461 0.0420644C9.7193 0.0420644 9.63477 0.042065 9.50798 0H3.0414C2.74554 0 2.66101 -1.28498e-06 2.36515 0.0841287C2.15382 0.126194 1.9425 0.252391 1.73117 0.378586C0.843603 0.925431 0.336426 2.01912 0.547752 3.02868C0.759078 4.0803 1.64664 4.87954 2.70327 5.0478Z" fill="#FF9305"/>
<path d="M8.3668 20.2751C8.24001 20.2331 8.15548 20.2331 8.02868 20.191C7.90189 20.191 7.81735 20.191 7.69056 20.1489H4.18254C3.88669 20.1489 3.80216 20.1489 3.5063 20.2331C3.29498 20.2751 3.08365 20.4013 2.87233 20.5275C1.98476 21.0744 1.47757 22.168 1.6889 23.1776C1.90023 24.1872 2.78779 25.0285 3.84442 25.1547C3.97122 25.1547 4.05575 25.1547 4.18254 25.1967H7.69056C7.81735 25.1967 7.90189 25.1967 8.02868 25.1547C8.24001 25.1126 8.49359 25.0705 8.70492 24.9864C9.80382 24.5237 10.3955 23.2617 10.1842 22.168C9.97288 21.2847 9.25437 20.5275 8.3668 20.2751Z" fill="#FF9305"/>
<path d="M21.0041 38.9944C20.8773 38.9523 20.7927 38.9523 20.6659 38.9102C20.5391 38.9102 20.4546 38.9102 20.3278 38.8682H16.8198C16.5239 38.8682 16.4394 38.8682 16.1436 38.9523C15.9322 38.9944 15.7209 39.1206 15.5096 39.2467C14.622 39.7936 14.1148 40.8873 14.3262 41.8968C14.5375 42.9064 15.4251 43.7477 16.4817 43.8739C16.6085 43.8739 16.693 43.8739 16.8198 43.916H20.3278C20.4546 43.916 20.5391 43.916 20.6659 43.8739C20.8773 43.8318 21.1309 43.7898 21.3422 43.7056C22.4411 43.2429 23.0328 41.981 22.8215 40.8873C22.6101 39.9619 21.8916 39.2047 21.0041 38.9944Z" fill="#FF9305"/>
<path d="M82.4577 11.9044V11.8623C82.4577 11.8203 82.4577 11.7361 82.4577 11.6941C82.4155 11.3155 82.2041 10.9369 81.9506 10.6424C81.8238 10.4742 81.7392 10.4321 81.6124 10.348C81.5702 10.348 81.5702 10.3059 81.5279 10.3059C81.5279 10.3059 81.4856 10.3059 81.4856 10.2639L64.0724 0.252389C63.9878 0.210324 63.9033 0.168258 63.8188 0.126193C63.5652 0.0420631 63.5229 0.042065 63.2271 0C63.1425 0 63.058 0 62.9735 0C62.9312 0 62.9312 0 62.8889 0H20.3279C20.032 0 19.9475 -1.28498e-06 19.6516 0.0841287C19.4403 0.126194 19.229 0.252391 19.0176 0.378586C18.1301 0.925431 17.6229 2.01912 17.8342 3.02868C18.0455 4.03824 18.9331 4.87954 19.9897 5.00574C20.1165 5.00574 20.2011 5.00574 20.3279 5.0478H32.0776C32.2044 5.0478 32.3735 5.08987 32.5003 5.08987C32.5848 5.08987 32.6693 5.13193 32.7538 5.13193C33.6414 5.38432 34.3599 6.14149 34.5713 7.06692C34.8248 8.16061 34.1909 9.42256 33.092 9.88528C32.8806 9.96941 32.6693 10.0535 32.4157 10.0535C32.2889 10.0535 32.2044 10.0535 32.0776 10.0956H3.0414C2.74554 10.0956 2.66101 10.0956 2.36515 10.1797C2.15382 10.2218 1.9425 10.348 1.73117 10.4742C0.843603 11.021 0.336426 12.1147 0.547752 13.1243C0.759078 14.1338 1.64664 14.9751 2.70327 15.1013C2.83007 15.1013 2.9146 15.1013 3.0414 15.1434H38.037C38.1638 15.1434 38.3329 15.1855 38.4596 15.1855C38.5442 15.1855 38.6287 15.2275 38.7132 15.2275C39.6008 15.4799 40.3193 16.2371 40.5306 17.1625C40.7842 18.2562 40.1503 19.5182 39.0514 19.9809C38.84 20.065 38.6287 20.1491 38.3751 20.1491C38.2483 20.1491 38.1638 20.1491 38.037 20.1912H32.8384C32.5425 20.1912 32.458 20.1912 32.1621 20.2753C31.9508 20.3174 31.7395 20.4436 31.5282 20.5698C30.6406 21.1166 30.1334 22.2103 30.3447 23.2199C30.5561 24.2294 31.4436 25.0707 32.5003 25.1969C32.627 25.1969 32.7116 25.1969 32.8384 25.239H45.6447C46.7859 25.239 47.6735 24.3136 47.6735 23.2199V16.0688C47.6735 15.7744 48.0116 15.6061 48.2652 15.7323L57.2254 20.9063C59.6345 22.2945 61.1138 24.8604 61.1138 27.6367V32.1377C61.1138 34.9981 57.9862 36.8069 55.4925 35.3767L48.1384 31.1281C47.8848 31.0019 47.7157 30.7495 47.6312 30.4551C47.4199 29.5296 46.6168 28.8566 45.6447 28.8566H13.6077C13.3118 28.8566 13.2273 28.8566 12.9315 28.9407C12.7201 28.9828 12.5088 29.109 12.2975 29.2352C11.4099 29.782 10.9027 30.8757 11.1141 31.8853C11.3254 32.8948 12.2129 33.7361 13.2696 33.8623C13.3964 33.8623 13.4809 33.8623 13.6077 33.9044H35.2475C35.3743 33.9044 35.5433 33.9465 35.6701 33.9465C35.7547 33.9465 35.8392 33.9885 35.9237 33.9885C36.8113 34.2409 37.5298 34.9981 37.7411 35.9235C37.9947 37.0172 37.3608 38.2792 36.2619 38.7419C36.0505 38.826 35.8392 38.9101 35.5856 38.9101C35.4588 38.9101 35.3743 38.9101 35.2475 38.9522H28.8654C28.5696 38.9522 28.4851 38.9522 28.1892 39.0363C27.9779 39.0784 27.7665 39.2046 27.5552 39.3308C26.6677 39.8776 26.1605 40.9713 26.3718 41.9809C26.5831 42.9904 27.4707 43.8317 28.5273 43.9579C28.6541 43.9579 28.7387 43.9579 28.8654 44H63.0157H63.058C63.1003 44 63.1003 44 63.1425 44C63.1848 44 63.2271 44 63.2693 44C63.3116 44 63.3539 44 63.4384 44C63.5652 43.9579 63.7342 43.9579 63.861 43.8738C63.9033 43.8738 63.9456 43.8317 63.9878 43.7897C64.1569 43.7055 64.2837 43.6214 64.4105 43.5373L81.4856 33.7361C81.5702 33.6941 81.6547 33.652 81.7392 33.5679C82.0351 33.3155 82.2887 32.979 82.4155 32.6004C82.5 32.348 82.5 32.2639 82.5 32.0115V12.0306C82.4577 11.9465 82.4577 11.9465 82.4577 11.9044ZM63.7765 4.62715L76.0334 11.652C76.2448 11.7782 76.2448 12.1147 76.0334 12.2409L73.6243 13.6291C73.2017 13.8815 72.6945 13.8815 72.3141 13.6291L60.0994 6.60421C59.8458 6.43595 59.8458 6.09943 60.0994 5.93117L62.424 4.58509C62.8467 4.37476 63.3539 4.37476 63.7765 4.62715ZM62.424 19.3078L50.2094 12.283C49.9558 12.1147 49.9558 11.7782 50.2094 11.6099L52.534 10.2639C52.9566 10.0115 53.4638 10.0115 53.8864 10.2639L66.1434 17.2887C66.3547 17.4149 66.3547 17.7514 66.1434 17.8776L63.7342 19.2658C63.3539 19.5602 62.8467 19.5602 62.424 19.3078ZM78.5271 30.2868C78.5271 30.6233 78.358 30.9178 78.0621 31.086L66.4392 37.7744C65.8475 38.1109 65.0867 37.6903 65.0867 36.9751V23.5985C65.0867 23.2619 65.2558 22.9675 65.5516 22.7992L68.6793 20.9904C68.6793 23.304 68.6793 26.6272 68.6793 28.2677C68.6793 28.7304 69.1865 29.0249 69.5668 28.7725L74.4273 25.9962C74.7232 25.8279 74.9345 25.4914 74.9345 25.1549V17.3728L77.1746 16.1109C77.7663 15.7744 78.5271 16.195 78.5271 16.9101V30.2868Z" fill="url(#paint0_linear_64_11356)"/>
<defs>
<linearGradient id="paint0_linear_64_11356" x1="13.7264" y1="21.9681" x2="69.9673" y2="21.9681" gradientUnits="userSpaceOnUse">
<stop stop-color="#597EF7"/>
<stop offset="1" stop-color="#597EF7"/>
</linearGradient>
</defs>
</svg>
