<svg width="209" height="72" viewBox="0 0 209 72" fill="none" xmlns="http://www.w3.org/2000/svg">
<path d="M80.4538 25.1967C80.5806 25.1967 80.6651 25.1967 80.7919 25.2388H87.2585C87.3853 25.2388 87.4698 25.2388 87.5966 25.1967C87.808 25.1547 88.0616 25.1126 88.2729 25.0285C89.3718 24.5657 89.9635 23.3038 89.7522 22.2101C89.5408 21.2847 88.8223 20.5275 87.9348 20.2751C87.808 20.2331 87.7234 20.2331 87.5966 20.191C87.4698 20.191 87.3853 20.191 87.2585 20.1489H80.7919C80.4961 20.1489 80.4115 20.1489 80.1157 20.2331C79.9044 20.2751 79.693 20.4013 79.4817 20.5275C78.5941 21.0744 78.087 22.168 78.2983 23.1776C78.5519 24.2292 79.4395 25.0705 80.4538 25.1967Z" fill="#FF9305"/>
<path d="M65.7033 5.0478C65.8301 5.0478 65.9146 5.0478 66.0414 5.08987H72.508C72.6348 5.08987 72.7193 5.08987 72.8461 5.0478C73.0574 5.00574 73.311 4.96367 73.5223 4.87954C74.6212 4.41683 75.2129 3.15488 75.0016 2.06119C74.7903 1.13576 74.0718 0.378583 73.1842 0.126193C73.0574 0.0841281 72.9729 0.0841294 72.8461 0.0420644C72.7193 0.0420644 72.6348 0.042065 72.508 0H66.0414C65.7455 0 65.661 -1.28498e-06 65.3652 0.0841287C65.1538 0.126194 64.9425 0.252391 64.7312 0.378586C63.8436 0.925431 63.3364 2.01912 63.5478 3.02868C63.7591 4.0803 64.6466 4.87954 65.7033 5.0478Z" fill="#FF9305"/>
<path d="M71.3668 20.2751C71.24 20.2331 71.1555 20.2331 71.0287 20.191C70.9019 20.191 70.8174 20.191 70.6906 20.1489H67.1825C66.8867 20.1489 66.8022 20.1489 66.5063 20.2331C66.295 20.2751 66.0837 20.4013 65.8723 20.5275C64.9848 21.0744 64.4776 22.168 64.6889 23.1776C64.9002 24.1872 65.7878 25.0285 66.8444 25.1547C66.9712 25.1547 67.0557 25.1547 67.1825 25.1967H70.6906C70.8174 25.1967 70.9019 25.1967 71.0287 25.1547C71.24 25.1126 71.4936 25.0705 71.7049 24.9864C72.8038 24.5237 73.3955 23.2617 73.1842 22.168C72.9729 21.2847 72.2544 20.5275 71.3668 20.2751Z" fill="#FF9305"/>
<path d="M84.0041 38.9944C83.8773 38.9523 83.7927 38.9523 83.6659 38.9102C83.5391 38.9102 83.4546 38.9102 83.3278 38.8682H79.8198C79.5239 38.8682 79.4394 38.8682 79.1436 38.9523C78.9322 38.9944 78.7209 39.1206 78.5096 39.2467C77.622 39.7936 77.1148 40.8873 77.3262 41.8968C77.5375 42.9064 78.4251 43.7477 79.4817 43.8739C79.6085 43.8739 79.693 43.8739 79.8198 43.916H83.3278C83.4546 43.916 83.5391 43.916 83.6659 43.8739C83.8773 43.8318 84.1309 43.7898 84.3422 43.7056C85.4411 43.2429 86.0328 41.981 85.8215 40.8873C85.6101 39.9619 84.8916 39.2047 84.0041 38.9944Z" fill="#FF9305"/>
<path d="M145.458 11.9044V11.8623C145.458 11.8203 145.458 11.7361 145.458 11.6941C145.415 11.3155 145.204 10.9369 144.951 10.6424C144.824 10.4742 144.739 10.4321 144.612 10.348C144.57 10.348 144.57 10.3059 144.528 10.3059C144.528 10.3059 144.486 10.3059 144.486 10.2639L127.072 0.252389C126.988 0.210324 126.903 0.168258 126.819 0.126193C126.565 0.0420631 126.523 0.042065 126.227 0C126.143 0 126.058 0 125.973 0C125.931 0 125.931 0 125.889 0H83.3279C83.032 0 82.9475 -1.2815e-06 82.6516 0.0841287C82.4403 0.126194 82.229 0.252391 82.0176 0.378586C81.1301 0.925431 80.6229 2.01912 80.8342 3.02868C81.0455 4.03824 81.9331 4.87954 82.9897 5.00574C83.1165 5.00574 83.2011 5.00574 83.3279 5.0478H95.0776C95.2044 5.0478 95.3735 5.08987 95.5003 5.08987C95.5848 5.08987 95.6693 5.13193 95.7538 5.13193C96.6414 5.38432 97.3599 6.14149 97.5713 7.06692C97.8248 8.16061 97.1909 9.42256 96.092 9.88528C95.8806 9.96941 95.6693 10.0535 95.4157 10.0535C95.2889 10.0535 95.2044 10.0535 95.0776 10.0956H66.0414C65.7455 10.0956 65.661 10.0956 65.3652 10.1797C65.1538 10.2218 64.9425 10.348 64.7312 10.4742C63.8436 11.021 63.3364 12.1147 63.5478 13.1243C63.7591 14.1338 64.6466 14.9751 65.7033 15.1013C65.8301 15.1013 65.9146 15.1013 66.0414 15.1434H101.037C101.164 15.1434 101.333 15.1855 101.46 15.1855C101.544 15.1855 101.629 15.2275 101.713 15.2275C102.601 15.4799 103.319 16.2371 103.531 17.1625C103.784 18.2562 103.15 19.5182 102.051 19.9809C101.84 20.065 101.629 20.1491 101.375 20.1491C101.248 20.1491 101.164 20.1491 101.037 20.1912H95.8384C95.5425 20.1912 95.458 20.1912 95.1621 20.2753C94.9508 20.3174 94.7395 20.4436 94.5282 20.5698C93.6406 21.1166 93.1334 22.2103 93.3447 23.2199C93.5561 24.2294 94.4436 25.0707 95.5003 25.1969C95.627 25.1969 95.7116 25.1969 95.8384 25.239H108.645C109.786 25.239 110.673 24.3136 110.673 23.2199V16.0688C110.673 15.7744 111.012 15.6061 111.265 15.7323L120.225 20.9063C122.635 22.2945 124.114 24.8604 124.114 27.6367V32.1377C124.114 34.9981 120.986 36.8069 118.493 35.3767L111.138 31.1281C110.885 31.0019 110.716 30.7495 110.631 30.4551C110.42 29.5296 109.617 28.8566 108.645 28.8566H76.6077C76.3118 28.8566 76.2273 28.8566 75.9315 28.9407C75.7201 28.9828 75.5088 29.109 75.2975 29.2352C74.4099 29.782 73.9027 30.8757 74.1141 31.8853C74.3254 32.8948 75.2129 33.7361 76.2696 33.8623C76.3964 33.8623 76.4809 33.8623 76.6077 33.9044H98.2475C98.3743 33.9044 98.5433 33.9465 98.6701 33.9465C98.7547 33.9465 98.8392 33.9885 98.9237 33.9885C99.8113 34.2409 100.53 34.9981 100.741 35.9235C100.995 37.0172 100.361 38.2792 99.2619 38.7419C99.0505 38.826 98.8392 38.9101 98.5856 38.9101C98.4588 38.9101 98.3743 38.9101 98.2475 38.9522H91.8654C91.5696 38.9522 91.4851 38.9522 91.1892 39.0363C90.9779 39.0784 90.7665 39.2046 90.5552 39.3308C89.6677 39.8776 89.1605 40.9713 89.3718 41.9809C89.5831 42.9904 90.4707 43.8317 91.5273 43.9579C91.6541 43.9579 91.7387 43.9579 91.8654 44H126.016H126.058C126.1 44 126.1 44 126.143 44C126.185 44 126.227 44 126.269 44C126.312 44 126.354 44 126.438 44C126.565 43.9579 126.734 43.9579 126.861 43.8738C126.903 43.8738 126.946 43.8317 126.988 43.7897C127.157 43.7055 127.284 43.6214 127.41 43.5373L144.486 33.7361C144.57 33.6941 144.655 33.652 144.739 33.5679C145.035 33.3155 145.289 32.979 145.415 32.6004C145.5 32.348 145.5 32.2639 145.5 32.0115V12.0306C145.458 11.9465 145.458 11.9465 145.458 11.9044ZM126.777 4.62715L139.033 11.652C139.245 11.7782 139.245 12.1147 139.033 12.2409L136.624 13.6291C136.202 13.8815 135.694 13.8815 135.314 13.6291L123.099 6.60421C122.846 6.43595 122.846 6.09943 123.099 5.93117L125.424 4.58509C125.847 4.37476 126.354 4.37476 126.777 4.62715ZM125.424 19.3078L113.209 12.283C112.956 12.1147 112.956 11.7782 113.209 11.6099L115.534 10.2639C115.957 10.0115 116.464 10.0115 116.886 10.2639L129.143 17.2887C129.355 17.4149 129.355 17.7514 129.143 17.8776L126.734 19.2658C126.354 19.5602 125.847 19.5602 125.424 19.3078ZM141.527 30.2868C141.527 30.6233 141.358 30.9178 141.062 31.086L129.439 37.7744C128.848 38.1109 128.087 37.6902 128.087 36.9751V23.5985C128.087 23.2619 128.256 22.9675 128.552 22.7992L131.679 20.9904C131.679 23.304 131.679 26.6272 131.679 28.2677C131.679 28.7304 132.186 29.0249 132.567 28.7725L137.427 25.9962C137.723 25.8279 137.935 25.4914 137.935 25.1549V17.3728L140.175 16.1109C140.766 15.7744 141.527 16.195 141.527 16.9101V30.2868Z" fill="url(#paint0_linear_64_11355)"/>
<path d="M79.416 63.528C79.2713 63.528 79.1267 63.4767 78.982 63.374C78.8373 63.2713 78.7627 63.122 78.758 62.926L78.289 62.443L78.779 62.051H80.564C80.9747 62.051 81.3153 61.9833 81.586 61.848C81.8613 61.708 82.0667 61.4957 82.202 61.211C82.342 60.9263 82.412 60.5647 82.412 60.126C82.412 59.4307 82.237 58.9593 81.887 58.712C81.5417 58.46 81.0633 58.334 80.452 58.334H78.737L78.135 56.822C78.3497 56.822 78.604 56.822 78.898 56.822C79.1967 56.822 79.4813 56.822 79.752 56.822C80.0227 56.822 80.2257 56.822 80.361 56.822C81.607 56.822 82.5403 57.0787 83.161 57.592C83.7817 58.1007 84.092 58.9313 84.092 60.084C84.092 60.5227 84.029 60.9473 83.903 61.358C83.7817 61.764 83.581 62.1303 83.301 62.457C83.021 62.7837 82.643 63.045 82.167 63.241C81.691 63.4323 81.103 63.528 80.403 63.528H79.416ZM77.127 67V56.822H78.779V67H77.127ZM89.6142 67.21C88.7882 67.21 88.0369 67.0047 87.3602 66.594C86.6836 66.1833 86.1446 65.579 85.7432 64.781C85.3419 63.983 85.1412 63.0053 85.1412 61.848C85.1412 60.728 85.3326 59.7783 85.7152 58.999C86.0979 58.2197 86.6252 57.6293 87.2972 57.228C87.9739 56.822 88.7486 56.619 89.6212 56.619C90.4706 56.619 91.2336 56.822 91.9102 57.228C92.5869 57.6293 93.1212 58.2197 93.5132 58.999C93.9052 59.7783 94.1012 60.728 94.1012 61.848C94.1012 63.0053 93.9052 63.983 93.5132 64.781C93.1259 65.579 92.5939 66.1833 91.9172 66.594C91.2406 67.0047 90.4729 67.21 89.6142 67.21ZM89.6142 65.684C90.1369 65.684 90.6082 65.5487 91.0282 65.278C91.4482 65.0027 91.7819 64.585 92.0292 64.025C92.2812 63.4603 92.4072 62.7393 92.4072 61.862C92.4072 61.0313 92.2836 60.3407 92.0362 59.79C91.7889 59.2393 91.4552 58.8287 91.0352 58.558C90.6152 58.2827 90.1439 58.145 89.6212 58.145C89.1219 58.145 88.6599 58.2827 88.2352 58.558C87.8152 58.8287 87.4769 59.2393 87.2202 59.79C86.9636 60.3407 86.8352 61.0313 86.8352 61.862C86.8352 62.52 86.9076 63.0893 87.0522 63.57C87.2016 64.0507 87.4046 64.4473 87.6612 64.76C87.9226 65.0727 88.2189 65.306 88.5502 65.46C88.8862 65.6093 89.2409 65.684 89.6142 65.684ZM97.3338 67V65.404H98.9578C99.5271 65.404 100.045 65.2827 100.512 65.04C100.978 64.7973 101.349 64.4147 101.625 63.892C101.905 63.3693 102.045 62.6903 102.045 61.855C102.045 60.9823 101.907 60.2917 101.632 59.783C101.356 59.2697 100.985 58.9033 100.519 58.684C100.052 58.46 99.5295 58.348 98.9508 58.348H97.2778V56.822H98.9928C99.9308 56.822 100.757 56.9993 101.471 57.354C102.189 57.7087 102.752 58.257 103.158 58.999C103.568 59.7363 103.774 60.6837 103.774 61.841C103.774 62.9703 103.561 63.9177 103.137 64.683C102.712 65.4483 102.14 66.027 101.422 66.419C100.703 66.8063 99.8981 67 99.0068 67H97.3338ZM95.8848 67V56.822H97.5578V67H95.8848ZM106.93 67L110.283 56.822H112.453L115.806 67H114.049L113.118 63.941L114.063 64.606H109.037L109.555 63.22H113.636L113.111 63.92L112.012 60.35L111.389 58.047H111.333L110.724 60.35L108.68 67H106.93ZM120.668 67.084C120.164 67.084 119.763 67 119.464 66.832C119.165 66.664 118.946 66.468 118.806 66.244C118.666 66.0153 118.577 65.8147 118.54 65.642L117.98 65.67L118.631 65.117C118.664 65.2337 118.736 65.348 118.848 65.46C118.96 65.5673 119.123 65.656 119.338 65.726C119.553 65.7913 119.816 65.824 120.129 65.824C120.652 65.824 121.081 65.621 121.417 65.215C121.758 64.809 121.928 64.13 121.928 63.178C121.928 62.3567 121.769 61.7267 121.452 61.288C121.135 60.8447 120.729 60.623 120.234 60.623C119.884 60.623 119.595 60.672 119.366 60.77C119.142 60.868 118.972 60.9823 118.855 61.113C118.738 61.2437 118.664 61.3603 118.631 61.463V60.938C118.64 60.784 118.68 60.6113 118.75 60.42C118.825 60.224 118.944 60.035 119.107 59.853C119.275 59.6663 119.494 59.5147 119.765 59.398C120.04 59.2767 120.381 59.216 120.787 59.216C121.403 59.216 121.921 59.3817 122.341 59.713C122.761 60.0443 123.078 60.4993 123.293 61.078C123.512 61.652 123.622 62.3053 123.622 63.038C123.622 63.7147 123.538 64.3073 123.37 64.816C123.207 65.32 122.983 65.74 122.698 66.076C122.418 66.412 122.103 66.664 121.753 66.832C121.403 67 121.041 67.084 120.668 67.084ZM116.986 69.821V59.356H118.61L118.631 60.413V65.18L118.54 65.642L118.631 67.007V69.821H116.986ZM128.898 67.084C128.394 67.084 127.993 67 127.694 66.832C127.396 66.664 127.176 66.468 127.036 66.244C126.896 66.0153 126.808 65.8147 126.77 65.642L126.21 65.67L126.861 65.117C126.894 65.2337 126.966 65.348 127.078 65.46C127.19 65.5673 127.354 65.656 127.568 65.726C127.783 65.7913 128.047 65.824 128.359 65.824C128.882 65.824 129.311 65.621 129.647 65.215C129.988 64.809 130.158 64.13 130.158 63.178C130.158 62.3567 130 61.7267 129.682 61.288C129.365 60.8447 128.959 60.623 128.464 60.623C128.114 60.623 127.825 60.672 127.596 60.77C127.372 60.868 127.202 60.9823 127.085 61.113C126.969 61.2437 126.894 61.3603 126.861 61.463V60.938C126.871 60.784 126.91 60.6113 126.98 60.42C127.055 60.224 127.174 60.035 127.337 59.853C127.505 59.6663 127.725 59.5147 127.995 59.398C128.271 59.2767 128.611 59.216 129.017 59.216C129.633 59.216 130.151 59.3817 130.571 59.713C130.991 60.0443 131.309 60.4993 131.523 61.078C131.743 61.652 131.852 62.3053 131.852 63.038C131.852 63.7147 131.768 64.3073 131.6 64.816C131.437 65.32 131.213 65.74 130.928 66.076C130.648 66.412 130.333 66.664 129.983 66.832C129.633 67 129.272 67.084 128.898 67.084ZM125.216 69.821V59.356H126.84L126.861 60.413V65.18L126.77 65.642L126.861 67.007V69.821H125.216Z" fill="#101828"/>
<defs>
<linearGradient id="paint0_linear_64_11355" x1="76.7264" y1="21.9681" x2="132.967" y2="21.9681" gradientUnits="userSpaceOnUse">
<stop stop-color="#597EF7"/>
<stop offset="1" stop-color="#597EF7"/>
</linearGradient>
</defs>
</svg>
